<?xml version="1.0" encoding="utf-8"?>
<!-- Generator: Adobe Illustrator 18.1.1, SVG Export Plug-In . SVG Version: 6.00 Build 0)  -->
<svg version="1.1"
	 id="svg2" xmlns:dc="http://purl.org/dc/elements/1.1/" xmlns:cc="http://creativecommons.org/ns#" xmlns:rdf="http://www.w3.org/1999/02/22-rdf-syntax-ns#" xmlns:svg="http://www.w3.org/2000/svg"
	 xmlns="http://www.w3.org/2000/svg" xmlns:xlink="http://www.w3.org/1999/xlink" x="0px" y="0px" viewBox="-293 335.7 900 130"
	 enable-background="new -293 335.7 900 130" xml:space="preserve">
<path fill="#FFFFFF" d="M-115.2,396.9c-0.3,0-0.6,0-1,0.1c0.2-2.1,0.4-4.2,0.4-6.3c0-30.4-24.5-55-54.8-55
	c-23.6,0-43.7,14.9-51.4,35.9c-4.3-5.1-10.7-8.4-17.8-8.4c-12.8,0-23.2,10.4-23.2,23.2c0,1.9,0.2,3.7,0.7,5.4
	c-17.4,3.1-30.7,18.3-30.7,36.6c0,20.5,16.6,37.2,37.1,37.2h3.6c11.6-11.6,25.7-25.8,26.7-26.8c1.7-1.7,6.2-1.7,6.2-1.7s4.4-4.4,9-9
	c4.5-4.6-3.3-12.4-3.3-12.4l-10.9-11c42-42.1,73-29.5,73-29.5s12.6,31.1-29.4,73.3l-10.9-11c0,0-7.8-7.8-12.4-3.3c-4.5,4.6-9,9-9,9
	s0,4.6-1.7,6.3c-0.7,0.7-7.8,7.8-16,16h118.7v-0.2c17.5-1.5,31.3-16.2,31.3-34.2C-80.9,412.3-96.2,396.9-115.2,396.9z"/>
<g>
	<path fill="#FFFFFF" d="M-22.4,426.8c3.4,0,5.7-0.3,7.1-1c1.4-0.7,2.1-1.9,2.1-3.8c0-1.5-0.9-2.8-2.7-3.9c-1.8-1.1-4.6-2.4-8.2-3.8
		c-2.9-1.1-5.5-2.2-7.8-3.3c-2.3-1.1-4.3-2.5-6-4.1c-1.6-1.6-2.9-3.5-3.8-5.7c-0.9-2.2-1.4-4.9-1.4-8c0-6.1,2.3-10.9,6.8-14.4
		c4.5-3.5,10.7-5.3,18.6-5.3c3.9,0,7.7,0.4,11.3,1c3.6,0.7,6.5,1.5,8.6,2.3L-1,391c-2.1-0.7-4.5-1.4-7-2c-2.5-0.6-5.3-0.9-8.4-0.9
		c-5.7,0-8.6,1.6-8.6,4.8c0,0.7,0.1,1.4,0.4,2c0.3,0.6,0.7,1.1,1.5,1.7c0.7,0.5,1.7,1.1,3,1.7c1.3,0.6,2.9,1.3,4.9,2.1
		c4,1.5,7.3,3,10,4.4c2.6,1.5,4.7,3,6.2,4.7c1.5,1.7,2.6,3.5,3.2,5.6c0.6,2,0.9,4.4,0.9,7.1c0,6.4-2.4,11.3-7.2,14.5
		c-4.8,3.3-11.6,4.9-20.4,4.9c-5.7,0-10.5-0.5-14.3-1.5c-3.8-1-6.5-1.8-7.9-2.5l3.1-14.9c3.1,1.2,6.3,2.2,9.6,2.9
		C-28.9,426.4-25.6,426.8-22.4,426.8"/>
	<path fill="#FFFFFF" d="M73.8,375c-3.7,12.5-7.6,24.2-11.6,35.2c-4,10.9-8.4,21.6-13.2,31.9c-1.7,3.7-3.4,6.9-5.2,9.4
		c-1.7,2.6-3.6,4.7-5.7,6.4c-2.1,1.7-4.4,2.9-7,3.7c-2.6,0.8-5.6,1.2-9.1,1.2c-2.9,0-5.5-0.3-8-0.8c-2.4-0.5-4.4-1.1-6-1.8l3.2-14.7
		c1.9,0.7,3.6,1.1,5.1,1.4c1.5,0.2,3,0.4,4.7,0.4c3.3,0,5.8-0.9,7.6-2.7c1.8-1.8,3.3-4.2,4.5-7.4c-4.2-8.2-8.4-17.5-12.6-27.7
		c-4.2-10.3-8.1-21.8-11.8-34.5h19.5c0.8,3.2,1.8,6.7,2.9,10.4c1.1,3.7,2.3,7.5,3.5,11.4c1.2,3.8,2.5,7.6,3.8,11.2
		c1.3,3.6,2.5,6.9,3.6,9.9c1.1-3,2.2-6.3,3.3-9.9c1.2-3.6,2.3-7.3,3.4-11.2c1.1-3.8,2.2-7.6,3.2-11.4c1-3.7,2-7.2,2.8-10.4H73.8z"/>
	<path fill="#FFFFFF" d="M99.7,426.8c3.4,0,5.7-0.3,7.1-1c1.4-0.7,2.1-1.9,2.1-3.8c0-1.5-0.9-2.8-2.7-3.9c-1.8-1.1-4.6-2.4-8.2-3.8
		c-2.9-1.1-5.5-2.2-7.8-3.3c-2.3-1.1-4.3-2.5-6-4.1c-1.6-1.6-2.9-3.5-3.8-5.7c-0.9-2.2-1.4-4.9-1.4-8c0-6.1,2.3-10.9,6.8-14.4
		c4.5-3.5,10.7-5.3,18.6-5.3c3.9,0,7.7,0.4,11.3,1c3.6,0.7,6.5,1.5,8.6,2.3l-3.2,14.3c-2.1-0.7-4.5-1.4-7-2
		c-2.5-0.6-5.3-0.9-8.4-0.9c-5.7,0-8.6,1.6-8.6,4.8c0,0.7,0.1,1.4,0.4,2c0.2,0.6,0.7,1.1,1.5,1.7c0.7,0.5,1.7,1.1,3,1.7
		c1.3,0.6,2.9,1.3,4.9,2.1c4,1.5,7.3,3,10,4.4c2.6,1.5,4.7,3,6.2,4.7c1.5,1.7,2.6,3.5,3.2,5.6c0.6,2,0.9,4.4,0.9,7.1
		c0,6.4-2.4,11.3-7.2,14.5c-4.8,3.3-11.6,4.9-20.4,4.9c-5.7,0-10.5-0.5-14.3-1.5c-3.8-1-6.5-1.8-7.9-2.5l3.1-14.9
		c3.1,1.2,6.3,2.2,9.6,2.9C93.3,426.4,96.5,426.8,99.7,426.8"/>
	<path fill="#FFFFFF" d="M195.5,437.9c-1.7,0.5-3.5,1-5.7,1.4c-2.1,0.4-4.4,0.8-6.7,1.2c-2.3,0.3-4.7,0.6-7.2,0.8
		c-2.4,0.2-4.7,0.3-7,0.3c-5.3,0-10.1-0.8-14.3-2.3c-4.2-1.6-7.7-3.8-10.6-6.7c-2.9-2.9-5.1-6.5-6.6-10.6c-1.5-4.2-2.3-8.8-2.3-14
		c0-5.3,0.7-10,2-14.3c1.3-4.2,3.2-7.8,5.7-10.8c2.5-3,5.5-5.2,9-6.8c3.6-1.6,7.7-2.3,12.3-2.3c2.5,0,4.8,0.3,6.8,0.7
		c2,0.5,4,1.2,6.1,2.1v-29.4l18.3-3V437.9z M154,407c0,5.7,1.3,10.2,3.8,13.7c2.5,3.5,6.3,5.2,11.3,5.2c1.6,0,3.2-0.1,4.6-0.2
		c1.4-0.1,2.5-0.3,3.4-0.4v-33.5c-1.2-0.7-2.7-1.4-4.5-1.9c-1.8-0.5-3.7-0.7-5.6-0.7C158.3,389.2,154,395.2,154,407"/>
	<path fill="#FFFFFF" d="M230.3,356.3c0,3.4-1.1,6-3.3,8c-2.2,1.9-4.7,2.9-7.7,2.9c-3,0-5.5-1-7.7-2.9c-2.2-1.9-3.3-4.6-3.3-8
		c0-3.4,1.1-6,3.3-8c2.2-1.9,4.7-2.9,7.7-2.9c3,0,5.5,1,7.7,2.9C229.2,350.2,230.3,352.9,230.3,356.3 M228.6,440h-18.3v-65h18.3V440
		z"/>
	<path fill="#FFFFFF" d="M299.3,431.8c0,10.6-2.7,18.5-8.1,23.6c-5.4,5.1-13.7,7.7-24.9,7.7c-3.9,0-7.9-0.4-11.8-1.1
		c-3.9-0.7-7.6-1.6-11-2.8l3.2-15.4c2.9,1.2,5.9,2.1,9.1,2.7c3.2,0.7,6.7,1,10.8,1c5.2,0,9-1.2,11.1-3.5c2.2-2.3,3.3-5.3,3.3-8.9
		V433c-2,0.9-4,1.6-6.1,2c-2.1,0.5-4.4,0.7-6.8,0.7c-9,0-15.8-2.7-20.6-8c-4.8-5.3-7.1-12.7-7.1-22.3c0-4.8,0.7-9.1,2.2-13
		c1.5-3.9,3.6-7.3,6.5-10.1c2.8-2.8,6.3-5,10.4-6.5c4.1-1.5,8.7-2.3,13.9-2.3c2.2,0,4.5,0.1,6.8,0.3c2.3,0.2,4.7,0.5,7,0.8
		c2.3,0.3,4.5,0.7,6.6,1.2c2.1,0.5,4,0.9,5.6,1.4V431.8z M259,405.4c0,10.3,4.1,15.4,12.4,15.4c1.9,0,3.7-0.3,5.3-0.7
		c1.6-0.5,3-1.1,4.2-1.7V389c-0.9-0.2-2-0.3-3.2-0.4c-1.2-0.1-2.7-0.2-4.3-0.2c-4.9,0-8.5,1.6-10.8,4.8
		C260.2,396.4,259,400.5,259,405.4"/>
	<path fill="#FFFFFF" d="M359.1,441.4c-5,0-9.4-0.8-13.2-2.4c-3.8-1.6-7-3.9-9.6-6.8c-2.5-3-4.5-6.5-5.8-10.7c-1.3-4.1-2-8.7-2-13.7
		c0-5.1,0.7-9.7,2.1-13.9c1.4-4.2,3.4-7.8,5.9-10.8c2.6-3,5.7-5.3,9.4-7c3.7-1.6,7.8-2.4,12.4-2.4c3.5,0,6.8,0.3,9.8,0.9
		c3,0.6,5.4,1.3,7.1,2.3l-2.1,7c-1.7-0.8-3.5-1.5-5.6-2c-2.1-0.5-4.9-0.8-8.4-0.8c-7.2,0-12.6,2.3-16.3,7
		c-3.7,4.6-5.6,11.2-5.6,19.7c0,3.8,0.4,7.4,1.2,10.6c0.8,3.2,2.2,6,4.1,8.3c1.9,2.3,4.3,4.1,7.2,5.4c3,1.3,6.6,1.9,10.8,1.9
		c3.5,0,6.4-0.4,8.8-1.2c2.4-0.8,4.1-1.5,5.2-2.1l1.8,7c-1.5,0.8-3.9,1.7-7.1,2.5C366,441,362.6,441.4,359.1,441.4"/>
	<polygon fill="#FFFFFF" points="391.4,442 391.4,346.3 399.6,344.8 399.6,440.3 	"/>
	<path fill="#FFFFFF" d="M471.9,407.7c0,5.1-0.7,9.7-2.2,13.9c-1.5,4.2-3.5,7.7-6.1,10.7c-2.6,2.9-5.7,5.2-9.3,6.8
		c-3.6,1.6-7.5,2.4-11.9,2.4c-4.3,0-8.3-0.8-11.9-2.4c-3.6-1.6-6.7-3.9-9.3-6.8c-2.6-2.9-4.7-6.5-6.1-10.7
		c-1.5-4.2-2.2-8.8-2.2-13.9c0-5.1,0.7-9.7,2.2-13.9c1.5-4.2,3.5-7.8,6.1-10.7c2.6-3,5.7-5.3,9.3-6.9c3.6-1.6,7.5-2.4,11.9-2.4
		c4.3,0,8.3,0.8,11.9,2.4c3.6,1.6,6.7,3.9,9.3,6.9c2.6,3,4.7,6.5,6.1,10.7C471.1,397.9,471.9,402.6,471.9,407.7 M463.2,407.7
		c0-8.1-1.9-14.6-5.6-19.4c-3.8-4.8-8.8-7.2-15.2-7.2c-6.4,0-11.5,2.4-15.3,7.2c-3.8,4.8-5.6,11.3-5.6,19.4c0,8.1,1.9,14.5,5.6,19.3
		c3.8,4.8,8.8,7.1,15.3,7.1c6.4,0,11.5-2.4,15.2-7.1C461.4,422.2,463.2,415.8,463.2,407.7"/>
	<path fill="#FFFFFF" d="M528.5,375.2v16.1v36.6c-0.7,0.3-1.8,1.5-5.4,3.2c-2.6,1.3-6.2,2.7-10,2.7c-3.4,0-6.3-0.4-8.7-1.3
		c-2.4-0.9-4.3-2.3-5.8-4.3c-1.5-2-2.6-4.5-3.2-7.7c-0.7-3.2-1-7.1-1-11.7v-33.7h-8.1v36.4c0,4.4,0.4,8.5,1.3,12.2
		c0.9,3.7,2.3,6.8,4.3,9.4c2,2.6,4.6,4.6,7.9,6c3.3,1.4,7.3,2.1,12.1,2.1c5.9,0,10.9-1.3,15-3.4c0.5-0.3,1.1-0.5,1.6-0.7v4.8
		l8.1-1.7v-4.7v-45.9v-14.6H528.5z"/>
	<path fill="#FFFFFF" d="M598.9,344.2v31v3.9c-1.4-1.1-3.7-2.2-6.8-3.5c-3.1-1.2-6.8-1.8-11.1-1.8c-4.7,0-8.8,0.8-12.4,2.5
		c-1.4,0.6-2.6,1.4-3.8,2.2c-2,1.4-3.8,2.9-5.4,4.8c-1,1.2-1.9,2.6-2.7,4c-1.2,2-2.2,4.3-2.9,6.7c-1.3,4.1-1.9,8.7-1.9,13.6
		c0,5.3,0.8,10,2.3,14.2c1.5,4.2,3.7,7.7,6.5,10.7c2,2.1,4.3,3.9,6.9,5.3c0.8,0.5,1.7,1,2.6,1.4c1.8,0.8,3.7,1.3,6,1.7
		c1.9,0.3,3.9,0.5,6.2,0.5c5.9,0,10.9-1.3,15-3.4c0.5-0.3,1.1-0.5,1.6-0.7v2.9v1.8l8.1-1.7V438v-2.4v-45.9v-14.6v-32.5L598.9,344.2z
		 M598.9,427.9c-0.7,0.3-1.8,1.5-5.4,3.2c-2.6,1.3-6.2,2.7-10,2.7c-0.8,0-1.7,0-2.7,0.1c-4.3-0.4-8-1.8-11.1-4.1
		c-1-0.8-2-1.6-2.9-2.6c-4.3-4.6-6.4-11.1-6.4-19.6c0-3.6,0.4-7,1.1-10.2c0.7-3,1.8-5.6,3.3-7.8c0.1-0.2,0.2-0.4,0.4-0.6
		c1.7-2.4,3.9-4.3,6.6-5.7c2.7-1.4,6.1-2.1,10.1-2.1c1.9,0,3.8,0.2,5.5,0.6c1.7,0.4,3.4,0.9,4.9,1.4c1.5,0.6,2.8,1.2,3.9,1.9
		c1.1,0.7,2.1,1.3,2.8,1.9v4.3V427.9z"/>
</g>
</svg>
